<?xml version="1.0" encoding="UTF-8" standalone="no"?>
<!DOCTYPE svg PUBLIC "-//W3C//DTD SVG 1.1//EN" "http://www.w3.org/Graphics/SVG/1.1/DTD/svg11.dtd">
<svg width="100%" height="100%" viewBox="0 0 2363 2363" version="1.1" xmlns="http://www.w3.org/2000/svg" xmlns:xlink="http://www.w3.org/1999/xlink" xml:space="preserve" xmlns:serif="http://www.serif.com/" style="fill-rule:evenodd;clip-rule:evenodd;stroke-linejoin:round;stroke-miterlimit:2;">
    <g transform="matrix(0.210319,0,0,0.210319,1181.102362,1181.102362)">
        <g transform="matrix(1,0,0,1,-4922.916667,-4922.916667)">
            <g transform="matrix(16.592283,0,0,16.592283,-9823.996913,-5695.548629)">
                <path d="M887.896,805.562C884.79,805.562 882.146,803.299 881.668,800.23C880.066,789.94 877.178,780.292 873.008,771.285C868.125,760.738 860.215,749.312 849.277,737.008L717.148,587.594C704.062,594.43 694.346,602.145 687.998,610.738C681.65,619.332 678.477,628.316 678.477,637.691C678.477,646.871 680.283,656.148 683.896,665.523C687.51,674.898 693.516,686.422 701.914,700.094C710.703,714.742 716.758,726.852 720.078,736.422C723.398,745.992 725.059,755.562 725.059,765.133C725.059,783.417 710.237,798.238 691.953,798.238L649.711,798.238C644.078,798.238 639.512,793.672 639.512,788.039L639.512,787.408C639.512,785.399 640.904,783.659 642.863,783.218C648.881,781.885 653.135,780.055 655.625,777.73C658.555,774.996 660.02,770.895 660.02,765.426C660.02,756.637 655.625,741.402 646.836,719.723C637.656,696.48 633.066,677.145 633.066,661.715C633.066,625.387 655.918,594.332 701.621,568.551L660.898,524.02C651.328,513.473 644.346,503.17 639.951,493.111C635.557,483.053 633.359,472.848 633.359,462.496C633.359,453.512 635.361,443.551 639.365,432.613C642.699,423.506 646.812,415.075 651.703,407.322C653.506,404.466 656.646,402.735 660.023,402.735C660.325,402.73 660.634,402.73 660.947,402.73C667.344,402.73 672.763,407.441 673.654,413.774C675.019,423.766 677.507,432.584 681.113,440.23C685.996,450.582 693.516,461.617 703.672,473.336L813.828,600.191C818.125,579.879 823.789,560.592 830.82,542.33C837.852,524.068 845.371,508.883 853.379,496.773C839.707,493.258 829.648,489.791 823.203,486.373C816.758,482.955 811.826,478.707 808.408,473.629C804.99,468.551 803.281,462.008 803.281,454C803.281,437.545 805.985,422.823 811.391,409.833C813.185,405.543 817.379,402.75 822.029,402.75C822.562,402.73 823.102,402.73 823.642,402.73C828.376,402.73 832.503,405.951 833.653,410.543C835.16,416.74 837.538,421.46 840.781,424.703C845.273,429.195 852.109,432.516 861.289,434.664L882.676,439.645C893.223,441.988 901.23,444.869 906.699,448.287C912.168,451.705 915.977,455.562 918.125,459.859C920.273,464.156 921.348,470.406 921.348,478.609C921.348,486.617 920.566,493.746 919.004,499.996C910.801,502.145 902.207,503.219 893.223,503.219C889.512,503.219 885.605,502.926 881.504,502.34C869.98,520.699 861.045,539.107 854.697,557.564C848.35,576.021 845.176,591.5 845.176,604C845.176,614.938 846.494,624.068 849.131,631.393C851.768,638.717 856.406,645.992 863.047,653.219L895.273,689.84C905.234,701.168 912.119,711.275 915.928,720.162C919.736,729.049 921.641,739.352 921.641,751.07C921.641,759.078 920.078,767.281 916.953,775.68C914.833,781.377 911.59,787.793 907.223,794.928C903.187,801.534 896.003,805.562 888.262,805.562L887.896,805.562Z" style="fill-rule:nonzero;"/>
            </g>
            <g transform="matrix(16.592283,0,0,16.592283,-9823.996913,-4440.595237)">
                <path d="M1056.602,801.363C1028.477,801.363 1007.546,790.296 993.809,768.16C980.072,746.025 973.203,712.431 973.203,667.379C973.203,643.421 975.319,622.717 979.551,605.27C983.783,587.822 989.707,573.401 997.324,562.008C1004.941,550.615 1014.089,542.184 1024.766,536.715C1035.443,531.246 1047.096,528.512 1059.727,528.512C1088.242,528.512 1109.466,539.514 1123.398,561.52C1137.331,583.525 1144.297,616.793 1144.297,661.324C1144.297,707.418 1136.842,742.281 1121.934,765.914C1107.025,789.547 1085.247,801.363 1056.602,801.363ZM1011.289,661.52C1011.289,703.967 1015.228,735.12 1023.105,754.977C1030.983,774.833 1043.19,784.762 1059.727,784.762C1075.482,784.762 1087.168,775.419 1094.785,756.734C1102.402,738.049 1106.211,709.111 1106.211,669.918C1106.211,639.97 1104.258,615.719 1100.352,597.164C1096.445,578.609 1091.009,565.296 1084.043,557.223C1077.077,549.15 1068.646,545.113 1058.75,545.113C1049.766,545.113 1042.246,547.783 1036.191,553.121C1030.137,558.46 1025.254,566.142 1021.543,576.168C1017.832,586.194 1015.195,598.401 1013.633,612.789C1012.07,627.177 1011.289,643.421 1011.289,661.52Z" style="fill-rule:nonzero;"/>
            </g>
        </g>
    </g>
</svg>
